<mxfile host="65bd71144e">
    <diagram id="xa1VYv8XVaQ57ZBCVkT7" name="Page-1">
        <mxGraphModel dx="1152" dy="534" grid="1" gridSize="10" guides="1" tooltips="1" connect="1" arrows="1" fold="1" page="1" pageScale="1" pageWidth="827" pageHeight="1169" math="0" shadow="0">
            <root>
                <mxCell id="0"/>
                <mxCell id="1" parent="0"/>
                <mxCell id="6" value="" style="edgeStyle=none;html=1;fontSize=15;" edge="1" parent="1" source="2" target="5">
                    <mxGeometry relative="1" as="geometry"/>
                </mxCell>
                <mxCell id="2" value="inicio" style="ellipse;whiteSpace=wrap;html=1;fontSize=15;fillColor=#a20025;fontColor=#ffffff;strokeColor=#6F0000;" vertex="1" parent="1">
                    <mxGeometry x="354" y="10" width="120" height="80" as="geometry"/>
                </mxCell>
                <mxCell id="8" value="" style="edgeStyle=none;html=1;fontSize=15;" edge="1" parent="1" source="5" target="7">
                    <mxGeometry relative="1" as="geometry"/>
                </mxCell>
                <mxCell id="5" value="a=0&lt;br&gt;b=1&lt;br&gt;fib=0" style="whiteSpace=wrap;html=1;fontSize=15;fillColor=#f0a30a;fontColor=#000000;strokeColor=#BD7000;" vertex="1" parent="1">
                    <mxGeometry x="354" y="180" width="120" height="60" as="geometry"/>
                </mxCell>
                <mxCell id="10" value="" style="edgeStyle=none;html=1;fontSize=15;" edge="1" parent="1" source="7" target="9">
                    <mxGeometry relative="1" as="geometry"/>
                </mxCell>
                <mxCell id="17" value="" style="edgeStyle=none;html=1;fontSize=15;exitX=1;exitY=0.5;exitDx=0;exitDy=0;" edge="1" parent="1" source="7" target="16">
                    <mxGeometry relative="1" as="geometry">
                        <Array as="points">
                            <mxPoint x="520" y="350"/>
                            <mxPoint x="520" y="700"/>
                            <mxPoint x="414" y="700"/>
                        </Array>
                    </mxGeometry>
                </mxCell>
                <mxCell id="7" value="fib&amp;lt;1000" style="rhombus;whiteSpace=wrap;html=1;fontSize=15;fillColor=#647687;fontColor=#ffffff;strokeColor=#314354;" vertex="1" parent="1">
                    <mxGeometry x="374" y="310" width="80" height="80" as="geometry"/>
                </mxCell>
                <mxCell id="11" style="edgeStyle=none;html=1;fontSize=15;exitX=0.5;exitY=1;exitDx=0;exitDy=0;entryX=0.5;entryY=0;entryDx=0;entryDy=0;" edge="1" parent="1" source="9" target="7">
                    <mxGeometry relative="1" as="geometry">
                        <mxPoint x="320" y="270" as="targetPoint"/>
                        <Array as="points">
                            <mxPoint x="414" y="670"/>
                            <mxPoint x="360" y="670"/>
                            <mxPoint x="320" y="670"/>
                            <mxPoint x="320" y="600"/>
                            <mxPoint x="320" y="310"/>
                        </Array>
                    </mxGeometry>
                </mxCell>
                <mxCell id="9" value="&lt;div&gt;fib=a+b&lt;/div&gt;&lt;div&gt;a=b&lt;/div&gt;&lt;div&gt;b=fib&lt;/div&gt;" style="whiteSpace=wrap;html=1;fontSize=15;fillColor=#f0a30a;fontColor=#000000;strokeColor=#BD7000;" vertex="1" parent="1">
                    <mxGeometry x="350" y="480" width="130" height="70" as="geometry"/>
                </mxCell>
                <mxCell id="12" value="a" style="shape=document;whiteSpace=wrap;html=1;boundedLbl=1;fontSize=15;fillColor=#008a00;fontColor=#ffffff;strokeColor=#005700;" vertex="1" parent="1">
                    <mxGeometry x="370" y="570" width="100" height="60" as="geometry"/>
                </mxCell>
                <mxCell id="16" value="fin" style="ellipse;whiteSpace=wrap;html=1;fontSize=15;fillColor=#1ba1e2;fontColor=#ffffff;strokeColor=#006EAF;" vertex="1" parent="1">
                    <mxGeometry x="354" y="750" width="120" height="60" as="geometry"/>
                </mxCell>
                <mxCell id="18" value="V" style="text;html=1;strokeColor=none;fillColor=none;align=center;verticalAlign=middle;whiteSpace=wrap;rounded=0;fontSize=15;" vertex="1" parent="1">
                    <mxGeometry x="400" y="410" width="60" height="30" as="geometry"/>
                </mxCell>
                <mxCell id="19" value="F" style="text;html=1;strokeColor=none;fillColor=none;align=center;verticalAlign=middle;whiteSpace=wrap;rounded=0;fontSize=15;" vertex="1" parent="1">
                    <mxGeometry x="454" y="320" width="60" height="30" as="geometry"/>
                </mxCell>
            </root>
        </mxGraphModel>
    </diagram>
</mxfile>